<svg xmlns="http://www.w3.org/2000/svg" xmlns:xlink="http://www.w3.org/1999/xlink" width="500" zoomAndPan="magnify" viewBox="0 0 375 374.999991" height="500" preserveAspectRatio="xMidYMid meet" version="1.2"><defs/><g id="1f52b2f2f6"><path style=" stroke:none;fill-rule:nonzero;fill:#ffffff;fill-opacity:1;" d="M 209.097656 194.730469 L 107.101562 224.347656 C 76 233.378906 43.550781 215.09375 35.121094 183.789062 L 34.058594 179.847656 C 25.628906 148.53125 44.515625 116.382812 75.953125 108.550781 L 179.007812 82.871094 C 209.589844 75.25 240.640625 93.539062 248.84375 124.007812 C 257.050781 154.492188 239.375 185.9375 209.097656 194.730469 Z M 209.097656 194.730469 "/><path style=" stroke:none;fill-rule:nonzero;fill:#1b57b8;fill-opacity:1;" d="M 90.886719 227.28125 C 80.984375 227.28125 71.195312 224.730469 62.3125 219.722656 C 48.519531 211.953125 38.652344 199.246094 34.535156 183.945312 L 33.472656 180.007812 C 29.351562 164.703125 31.503906 148.75 39.53125 135.085938 C 47.558594 121.421875 60.441406 111.789062 75.804688 107.960938 L 178.859375 82.28125 C 193.808594 78.558594 209.351562 80.8125 222.625 88.632812 C 235.902344 96.453125 245.421875 108.960938 249.429688 123.851562 C 253.441406 138.746094 251.488281 154.355469 243.933594 167.800781 C 236.375 181.246094 224.0625 191.019531 209.265625 195.316406 L 107.269531 224.929688 C 101.863281 226.503906 96.355469 227.28125 90.886719 227.28125 Z M 193.066406 81.746094 C 188.425781 81.746094 183.761719 82.3125 179.152344 83.460938 L 76.097656 109.140625 C 61.054688 112.890625 48.441406 122.320312 40.578125 135.699219 C 32.71875 149.082031 30.609375 164.703125 34.648438 179.691406 L 35.707031 183.628906 C 39.742188 198.609375 49.402344 211.054688 62.90625 218.664062 C 76.410156 226.273438 92.046875 228.085938 106.933594 223.761719 L 208.925781 194.148438 L 209.097656 194.730469 L 208.925781 194.148438 C 223.417969 189.9375 235.472656 180.371094 242.875 167.203125 C 250.273438 154.039062 252.1875 138.753906 248.257812 124.167969 C 244.332031 109.585938 235.011719 97.335938 222.011719 89.679688 C 213.105469 84.433594 203.15625 81.746094 193.066406 81.746094 Z M 193.066406 81.746094 "/><path style=" stroke:none;fill-rule:nonzero;fill:#ffffff;fill-opacity:1;" d="M 130.367188 244.296875 C 139 226.566406 207.160156 208.976562 221.890625 231.289062 C 236.625 253.601562 233.992188 283.398438 216.835938 309.257812 C 198.199219 337.351562 179.976562 337.769531 151.8125 311.058594 C 132.203125 292.460938 123.003906 259.410156 130.367188 244.296875 Z M 130.367188 244.296875 "/><path style=" stroke:none;fill-rule:nonzero;fill:#1b57b8;fill-opacity:1;" d="M 187.269531 331.324219 C 177.074219 331.324219 165.582031 324.953125 151.394531 311.5 C 132.605469 293.675781 121.917969 260.257812 129.820312 244.03125 C 135.050781 233.289062 162.511719 222.019531 187.429688 220.390625 C 204.734375 219.257812 217.15625 223.011719 222.398438 230.953125 C 236.894531 252.910156 234.957031 283.042969 217.339844 309.597656 C 208.300781 323.222656 199.605469 330.078125 189.976562 331.171875 C 189.085938 331.273438 188.179688 331.324219 187.269531 331.324219 Z M 130.367188 244.296875 L 130.910156 244.566406 C 123.996094 258.765625 131.960938 291.394531 152.230469 310.617188 C 167.40625 325.007812 179.355469 331.164062 189.835938 329.964844 C 199.082031 328.914062 207.5 322.226562 216.328125 308.921875 C 233.671875 282.785156 235.609375 253.164062 221.386719 231.625 C 216.390625 224.0625 204.363281 220.503906 187.507812 221.605469 C 162.957031 223.210938 135.980469 234.152344 130.910156 244.566406 Z M 130.367188 244.296875 "/><path style=" stroke:none;fill-rule:nonzero;fill:#ffffff;fill-opacity:1;" d="M 267.136719 159.542969 C 263.570312 176.175781 248.703125 202.402344 236.625 211.394531 C 228.214844 217.65625 237.8125 223.339844 256.277344 217.605469 C 283.6875 209.097656 301.371094 186.421875 302 170.328125 C 302.742188 151.265625 270.417969 144.226562 267.136719 159.542969 Z M 267.136719 159.542969 "/><path style=" stroke:none;fill-rule:nonzero;fill:#1b57b8;fill-opacity:1;" d="M 242.632812 220.59375 C 237.582031 220.59375 234.3125 219.261719 233.292969 217.25 C 232.722656 216.128906 232.351562 213.816406 236.261719 210.90625 C 247.816406 202.304688 262.816406 176.800781 266.542969 159.417969 C 267.898438 153.097656 274.269531 149.707031 282.785156 150.78125 C 292.714844 152.03125 303.035156 159.316406 302.605469 170.351562 C 301.972656 186.664062 284.148438 209.589844 256.460938 218.1875 C 251.011719 219.878906 246.34375 220.59375 242.632812 220.59375 Z M 279.910156 151.816406 C 274.597656 151.816406 268.984375 153.816406 267.730469 159.671875 C 263.957031 177.28125 248.726562 203.140625 236.984375 211.882812 C 234.652344 213.617188 233.699219 215.375 234.371094 216.699219 C 235.660156 219.234375 243.25 221.011719 256.097656 217.023438 C 283.28125 208.585938 300.773438 186.203125 301.390625 170.304688 C 301.792969 159.992188 292.023438 153.171875 282.628906 151.988281 C 281.75 151.878906 280.835938 151.816406 279.910156 151.816406 Z M 267.136719 159.542969 L 267.144531 159.542969 Z M 267.136719 159.542969 "/><path style=" stroke:none;fill-rule:nonzero;fill:#ffffff;fill-opacity:1;" d="M 297.414062 133.101562 L 295.832031 131.960938 C 288.1875 126.4375 286.460938 115.753906 291.976562 108.097656 L 293.117188 106.515625 C 298.632812 98.859375 309.304688 97.128906 316.949219 102.652344 L 318.53125 103.796875 C 326.175781 109.320312 327.902344 120.003906 322.386719 127.660156 L 321.246094 129.242188 C 315.730469 136.898438 305.058594 138.625 297.414062 133.101562 Z M 297.414062 133.101562 "/><path style=" stroke:none;fill-rule:nonzero;fill:#1b57b8;fill-opacity:1;" d="M 307.363281 136.945312 C 303.683594 136.945312 300.101562 135.796875 297.058594 133.597656 L 295.476562 132.453125 C 287.570312 126.742188 285.78125 115.65625 291.484375 107.742188 L 292.625 106.160156 C 295.386719 102.324219 299.476562 99.796875 304.136719 99.042969 C 308.800781 98.285156 313.476562 99.394531 317.304688 102.160156 L 318.886719 103.304688 C 322.714844 106.070312 325.238281 110.164062 325.996094 114.832031 C 326.75 119.5 325.640625 124.179688 322.878906 128.015625 L 321.738281 129.597656 C 318.976562 133.433594 314.886719 135.960938 310.226562 136.714844 C 309.269531 136.867188 308.3125 136.945312 307.363281 136.945312 Z M 297.769531 132.609375 C 301.335938 135.1875 305.691406 136.21875 310.03125 135.515625 C 314.371094 134.8125 318.179688 132.457031 320.753906 128.886719 L 321.894531 127.300781 C 324.46875 123.730469 325.5 119.371094 324.796875 115.023438 C 324.09375 110.679688 321.742188 106.863281 318.175781 104.289062 L 316.59375 103.148438 C 313.027344 100.570312 308.675781 99.539062 304.332031 100.242188 C 299.992188 100.945312 296.183594 103.296875 293.609375 106.871094 L 292.46875 108.453125 C 287.15625 115.824219 288.824219 126.148438 296.1875 131.46875 Z M 297.769531 132.609375 "/><path style=" stroke:none;fill-rule:nonzero;fill:#ffffff;fill-opacity:1;" d="M 290.765625 102.90625 C 291.4375 99.664062 300.757812 77.820312 294.945312 39.117188 C 293.386719 28.75 303.824219 32.074219 305.359375 39.421875 C 307.824219 51.246094 309.902344 90.394531 302.539062 101.761719 C 295.179688 113.125 289.140625 110.78125 290.765625 102.90625 Z M 290.765625 102.90625 "/><path style=" stroke:none;fill-rule:nonzero;fill:#1b57b8;fill-opacity:1;" d="M 293.527344 110.171875 C 293.0625 110.171875 292.625 110.089844 292.207031 109.917969 C 290.210938 109.097656 289.429688 106.363281 290.171875 102.78125 C 290.257812 102.359375 290.464844 101.707031 290.773438 100.714844 C 292.914062 93.875 299.425781 73.058594 294.34375 39.207031 C 293.46875 33.378906 296.234375 32.238281 297.464844 32.015625 C 300.566406 31.457031 304.953125 34.515625 305.953125 39.300781 C 308.605469 52.019531 310.332031 90.851562 303.050781 102.09375 C 299.6875 107.28125 296.238281 110.171875 293.527344 110.171875 Z M 298.246094 33.164062 C 298.050781 33.164062 297.863281 33.179688 297.679688 33.210938 C 295.816406 33.546875 295.039062 35.664062 295.542969 39.023438 C 300.667969 73.15625 294.09375 94.171875 291.929688 101.078125 C 291.644531 102 291.4375 102.664062 291.359375 103.027344 C 290.753906 105.957031 291.269531 108.21875 292.667969 108.792969 C 294.34375 109.480469 297.796875 107.964844 302.03125 101.429688 C 305.144531 96.621094 306.917969 85.730469 307.027344 70.757812 C 307.121094 57.84375 305.960938 45.28125 304.761719 39.546875 C 303.976562 35.78125 300.722656 33.164062 298.246094 33.164062 Z M 290.765625 102.90625 L 290.773438 102.90625 Z M 290.765625 102.90625 "/><path style=" stroke:none;fill-rule:nonzero;fill:#ffffff;fill-opacity:1;" d="M 317.25 69.015625 C 311.730469 76.695312 305.300781 92.238281 304.265625 99.527344 C 303.226562 106.816406 307.917969 110.824219 315.617188 98.605469 C 322.773438 87.238281 325.417969 80.414062 327.683594 74.234375 C 330.492188 66.574219 321.113281 63.644531 317.25 69.015625 Z M 317.25 69.015625 "/><path style=" stroke:none;fill-rule:nonzero;fill:#1b57b8;fill-opacity:1;" d="M 307.140625 107.03125 C 306.726562 107.03125 306.375 106.957031 306.089844 106.851562 C 304.082031 106.109375 303.128906 103.203125 303.664062 99.441406 C 304.765625 91.675781 311.375 76.140625 316.757812 68.65625 C 319.125 65.367188 323.164062 65.054688 325.765625 66.441406 C 327.957031 67.605469 329.761719 70.320312 328.253906 74.445312 C 325.835938 81.042969 323.089844 87.878906 316.128906 98.929688 C 311.929688 105.597656 308.933594 107.03125 307.140625 107.03125 Z M 317.746094 69.371094 C 312.085938 77.238281 305.828125 92.835938 304.867188 99.613281 C 304.421875 102.734375 305.082031 105.1875 306.507812 105.710938 C 307.253906 105.984375 310.078125 106.257812 315.101562 98.28125 C 321.996094 87.332031 324.71875 80.5625 327.113281 74.027344 C 328.167969 71.148438 327.449219 68.714844 325.195312 67.515625 C 323.050781 66.375 319.710938 66.636719 317.746094 69.371094 Z M 317.746094 69.371094 "/><path style=" stroke:none;fill-rule:nonzero;fill:#ffffff;fill-opacity:1;" d="M 332.683594 79.34375 C 325.195312 85.117188 315.695312 96.699219 312.617188 103.382812 C 309.535156 110.070312 312.882812 115.257812 323.753906 105.761719 C 333.867188 96.925781 337.242188 92.613281 341.179688 87.339844 C 346.066406 80.804688 337.921875 75.308594 332.683594 79.34375 Z M 332.683594 79.34375 "/><path style=" stroke:none;fill-rule:nonzero;fill:#1b57b8;fill-opacity:1;" d="M 314.363281 111.558594 C 313.382812 111.558594 312.710938 111.257812 312.269531 110.925781 C 310.554688 109.640625 310.476562 106.582031 312.066406 103.128906 C 315.304688 96.097656 324.957031 84.53125 332.3125 78.863281 C 335.523438 76.386719 339.480469 77.253906 341.578125 79.324219 C 343.34375 81.070312 344.296875 84.1875 341.667969 87.703125 C 337.484375 93.300781 334.007812 97.613281 324.15625 106.21875 C 319.335938 110.425781 316.269531 111.558594 314.363281 111.558594 Z M 333.054688 79.824219 C 325.820312 85.398438 316.34375 96.75 313.167969 103.640625 C 311.847656 106.503906 311.777344 109.039062 312.996094 109.953125 C 313.632812 110.429688 316.257812 111.503906 323.355469 105.300781 C 333.117188 96.777344 336.558594 92.511719 340.695312 86.976562 C 342.53125 84.523438 342.542969 81.984375 340.722656 80.191406 C 338.996094 78.480469 335.71875 77.773438 333.054688 79.824219 Z M 333.054688 79.824219 "/><path style=" stroke:none;fill-rule:nonzero;fill:#ffffff;fill-opacity:1;" d="M 336.355469 95.457031 C 328.902344 100.535156 324.28125 104.320312 319.050781 110.414062 C 314.261719 115.996094 319.175781 120.84375 325.785156 117.035156 C 332.136719 113.378906 338.535156 109.316406 343.328125 104.816406 C 349.277344 99.234375 341.820312 91.734375 336.355469 95.457031 Z M 336.355469 95.457031 "/><path style=" stroke:none;fill-rule:nonzero;fill:#1b57b8;fill-opacity:1;" d="M 321.316406 119 C 319.59375 119 318.242188 118.347656 317.441406 117.378906 C 316.214844 115.898438 315.875 113.183594 318.589844 110.015625 C 324.128906 103.5625 328.988281 99.742188 336.011719 94.953125 C 339.183594 92.796875 342.867188 94.101562 344.730469 96.429688 C 346.394531 98.511719 347.136719 102.074219 343.746094 105.257812 C 338.527344 110.15625 331.566406 114.40625 326.085938 117.5625 C 324.320312 118.582031 322.699219 119 321.316406 119 Z M 336.695312 95.960938 C 329.757812 100.6875 324.960938 104.457031 319.511719 110.808594 C 317.652344 112.980469 317.214844 115.199219 318.378906 116.605469 C 319.492188 117.953125 322.121094 118.445312 325.480469 116.511719 C 330.902344 113.386719 337.785156 109.183594 342.914062 104.371094 C 345.699219 101.757812 345.1875 98.949219 343.78125 97.191406 C 342.261719 95.289062 339.261719 94.210938 336.695312 95.960938 Z M 336.695312 95.960938 "/><path style=" stroke:none;fill-rule:nonzero;fill:#1b57b8;fill-opacity:1;" d="M 231.109375 95.511719 C 217.328125 83.445312 198.078125 78.121094 179.007812 82.871094 L 75.953125 108.550781 C 71.535156 109.652344 67.375 111.246094 63.492188 113.238281 C 51.378906 123.539062 45.179688 142.164062 54.78125 162.367188 C 65.863281 185.6875 83.929688 187.582031 111.691406 177.066406 C 138.09375 167.0625 195.359375 152.316406 218.558594 148.109375 C 239.058594 144.390625 245.6875 111.722656 231.109375 95.511719 Z M 231.109375 95.511719 "/><path style=" stroke:none;fill-rule:nonzero;fill:#1b57b8;fill-opacity:1;" d="M 84.546875 183.796875 C 81.808594 183.796875 79.253906 183.53125 76.851562 182.996094 C 67.125 180.84375 59.722656 174.183594 54.234375 162.625 C 43.664062 140.386719 52.402344 121.871094 63.097656 112.777344 C 63.136719 112.746094 63.175781 112.71875 63.214844 112.699219 C 67.242188 110.632812 71.476562 109.039062 75.804688 107.960938 L 178.859375 82.28125 C 197.417969 77.65625 217.097656 82.433594 231.511719 95.054688 C 231.527344 95.070312 231.546875 95.089844 231.5625 95.105469 C 239.371094 103.789062 241.742188 118.050781 237.464844 130.585938 C 234.0625 140.550781 227.210938 147.15625 218.667969 148.703125 C 195.632812 152.882812 138.636719 167.503906 111.902344 177.632812 C 100.96875 181.773438 92.066406 183.796875 84.546875 183.796875 Z M 63.832031 113.75 C 50.222656 125.363281 46.882812 144.335938 55.328125 162.105469 C 65.53125 183.570312 81.800781 187.738281 111.472656 176.496094 C 138.265625 166.34375 195.375 151.695312 218.453125 147.507812 C 226.550781 146.039062 233.0625 139.730469 236.316406 130.195312 C 240.453125 118.074219 238.1875 104.316406 230.683594 95.945312 C 216.570312 83.605469 197.3125 78.9375 179.152344 83.460938 L 76.097656 109.140625 C 71.882812 110.191406 67.753906 111.742188 63.832031 113.75 Z M 63.832031 113.75 "/><path style=" stroke:none;fill-rule:nonzero;fill:#52fffe;fill-opacity:1;" d="M 134.835938 132.9375 C 134.871094 134.128906 134.839844 135.308594 134.734375 136.480469 C 134.632812 137.648438 134.464844 138.789062 134.226562 139.894531 C 133.988281 141.003906 133.6875 142.058594 133.328125 143.058594 C 132.964844 144.058594 132.546875 144.984375 132.074219 145.84375 C 131.601562 146.699219 131.082031 147.464844 130.515625 148.144531 C 129.949219 148.820312 129.347656 149.398438 128.707031 149.871094 C 128.070312 150.347656 127.410156 150.710938 126.726562 150.964844 C 126.042969 151.214844 125.347656 151.351562 124.640625 151.375 C 123.9375 151.394531 123.234375 151.300781 122.539062 151.089844 C 121.839844 150.875 121.160156 150.554688 120.496094 150.117188 C 119.828125 149.679688 119.195312 149.140625 118.589844 148.5 C 117.984375 147.855469 117.417969 147.121094 116.894531 146.292969 C 116.371094 145.46875 115.902344 144.566406 115.480469 143.589844 C 115.058594 142.609375 114.695312 141.578125 114.394531 140.484375 C 114.09375 139.394531 113.855469 138.269531 113.683594 137.105469 C 113.511719 135.941406 113.40625 134.765625 113.371094 133.578125 C 113.335938 132.386719 113.371094 131.207031 113.472656 130.039062 C 113.578125 128.867188 113.746094 127.726562 113.984375 126.621094 C 114.21875 125.515625 114.519531 124.460938 114.882812 123.460938 C 115.246094 122.457031 115.664062 121.53125 116.136719 120.675781 C 116.609375 119.820312 117.128906 119.050781 117.695312 118.375 C 118.261719 117.695312 118.863281 117.117188 119.5 116.644531 C 120.136719 116.167969 120.800781 115.804688 121.484375 115.554688 C 122.167969 115.300781 122.863281 115.164062 123.566406 115.144531 C 124.273438 115.121094 124.972656 115.21875 125.671875 115.429688 C 126.371094 115.640625 127.050781 115.964844 127.714844 116.398438 C 128.378906 116.835938 129.015625 117.375 129.621094 118.019531 C 130.226562 118.660156 130.789062 119.398438 131.3125 120.222656 C 131.835938 121.050781 132.308594 121.953125 132.730469 122.929688 C 133.152344 123.90625 133.511719 124.941406 133.816406 126.03125 C 134.117188 127.121094 134.355469 128.25 134.527344 129.410156 C 134.699219 130.574219 134.800781 131.75 134.835938 132.9375 Z M 134.835938 132.9375 "/><path style=" stroke:none;fill-rule:nonzero;fill:#52fffe;fill-opacity:1;" d="M 180.085938 115.367188 C 180.644531 116.414062 181.140625 117.488281 181.566406 118.582031 C 181.996094 119.675781 182.347656 120.769531 182.628906 121.867188 C 182.910156 122.964844 183.109375 124.042969 183.230469 125.101562 C 183.347656 126.15625 183.386719 127.175781 183.34375 128.152344 C 183.300781 129.128906 183.175781 130.046875 182.96875 130.90625 C 182.765625 131.769531 182.480469 132.550781 182.121094 133.261719 C 181.761719 133.96875 181.332031 134.589844 180.832031 135.121094 C 180.328125 135.652344 179.769531 136.085938 179.148438 136.417969 C 178.523438 136.75 177.855469 136.976562 177.136719 137.097656 C 176.417969 137.21875 175.664062 137.234375 174.875 137.140625 C 174.085938 137.046875 173.277344 136.84375 172.449219 136.539062 C 171.621094 136.230469 170.789062 135.824219 169.953125 135.320312 C 169.117188 134.8125 168.292969 134.214844 167.480469 133.527344 C 166.671875 132.839844 165.886719 132.074219 165.132812 131.230469 C 164.375 130.390625 163.664062 129.484375 162.992188 128.519531 C 162.320312 127.558594 161.707031 126.550781 161.144531 125.5 C 160.585938 124.449219 160.089844 123.378906 159.664062 122.285156 C 159.234375 121.191406 158.882812 120.09375 158.601562 118.996094 C 158.320312 117.902344 158.121094 116.824219 158 115.765625 C 157.882812 114.707031 157.84375 113.691406 157.886719 112.714844 C 157.929688 111.738281 158.054688 110.816406 158.261719 109.957031 C 158.464844 109.097656 158.75 108.3125 159.109375 107.605469 C 159.46875 106.894531 159.898438 106.277344 160.402344 105.746094 C 160.902344 105.214844 161.460938 104.78125 162.085938 104.449219 C 162.707031 104.117188 163.375 103.890625 164.09375 103.765625 C 164.816406 103.644531 165.570312 103.632812 166.359375 103.726562 C 167.144531 103.820312 167.953125 104.019531 168.78125 104.328125 C 169.609375 104.632812 170.441406 105.039062 171.277344 105.546875 C 172.113281 106.054688 172.9375 106.652344 173.75 107.339844 C 174.5625 108.027344 175.34375 108.792969 176.097656 109.632812 C 176.855469 110.476562 177.566406 111.378906 178.238281 112.34375 C 178.910156 113.308594 179.523438 114.316406 180.085938 115.367188 Z M 180.085938 115.367188 "/><path style=" stroke:none;fill-rule:nonzero;fill:#1b57b8;fill-opacity:1;" d="M 219.113281 233.542969 C 218.183594 230.261719 216.417969 227.285156 214.109375 224.726562 C 197.289062 216.421875 164.367188 222.417969 144.910156 232.308594 C 153.949219 234.160156 160.507812 238.628906 165.871094 242.664062 C 184.253906 256.496094 196.4375 268.125 205.464844 266.21875 C 214.492188 264.316406 222.832031 246.667969 219.113281 233.542969 Z M 219.113281 233.542969 "/><path style=" stroke:none;fill-rule:nonzero;fill:#1b57b8;fill-opacity:1;" d="M 203.457031 267.03125 C 196.253906 267.03125 187.34375 260.082031 175.433594 250.792969 C 172.285156 248.339844 169.035156 245.804688 165.503906 243.152344 C 160.203125 239.160156 153.792969 234.75 144.789062 232.902344 C 144.535156 232.851562 144.34375 232.644531 144.308594 232.390625 C 144.273438 232.132812 144.402344 231.882812 144.632812 231.765625 C 164.886719 221.472656 197.742188 215.96875 214.378906 224.183594 C 214.445312 224.214844 214.507812 224.261719 214.558594 224.320312 C 217.046875 227.078125 218.773438 230.125 219.695312 233.378906 C 221.816406 240.851562 220.21875 250.597656 215.625 258.210938 C 212.734375 263.003906 209.171875 266.058594 205.589844 266.8125 C 204.898438 266.960938 204.1875 267.03125 203.457031 267.03125 Z M 146.710938 232.09375 C 154.691406 234.074219 160.804688 238.09375 166.234375 242.179688 C 169.773438 244.839844 173.027344 247.378906 176.179688 249.835938 C 189.035156 259.859375 198.328125 267.109375 205.339844 265.625 C 208.542969 264.949219 211.910156 262.019531 214.585938 257.585938 C 219.011719 250.246094 220.558594 240.875 218.527344 233.710938 C 217.667969 230.671875 216.054688 227.816406 213.738281 225.222656 C 200.785156 218.914062 171.128906 220.242188 146.710938 232.09375 Z M 146.710938 232.09375 "/><path style=" stroke:none;fill-rule:nonzero;fill:#ffffff;fill-opacity:1;" d="M 317.25 69.015625 C 311.730469 76.695312 305.300781 92.238281 304.265625 99.527344 C 303.226562 106.816406 307.917969 110.824219 315.617188 98.605469 C 322.773438 87.238281 325.417969 80.414062 327.683594 74.234375 C 330.492188 66.574219 321.113281 63.644531 317.25 69.015625 Z M 317.25 69.015625 "/><path style=" stroke:none;fill-rule:nonzero;fill:#1b57b8;fill-opacity:1;" d="M 307.140625 107.03125 C 306.726562 107.03125 306.375 106.957031 306.089844 106.851562 C 304.082031 106.109375 303.128906 103.203125 303.664062 99.441406 C 304.765625 91.675781 311.375 76.140625 316.757812 68.65625 C 319.125 65.367188 323.164062 65.054688 325.765625 66.441406 C 327.957031 67.605469 329.761719 70.320312 328.253906 74.445312 C 325.835938 81.042969 323.089844 87.878906 316.128906 98.929688 C 311.929688 105.597656 308.933594 107.03125 307.140625 107.03125 Z M 317.746094 69.371094 C 312.085938 77.238281 305.828125 92.835938 304.867188 99.613281 C 304.421875 102.734375 305.082031 105.1875 306.507812 105.710938 C 307.253906 105.984375 310.078125 106.257812 315.101562 98.28125 C 321.996094 87.332031 324.71875 80.5625 327.113281 74.027344 C 328.167969 71.148438 327.449219 68.714844 325.195312 67.515625 C 323.050781 66.375 319.710938 66.636719 317.746094 69.371094 Z M 317.746094 69.371094 "/><path style=" stroke:none;fill-rule:nonzero;fill:#ffffff;fill-opacity:1;" d="M 332.683594 79.34375 C 325.195312 85.117188 315.695312 96.699219 312.617188 103.382812 C 309.535156 110.070312 312.882812 115.257812 323.753906 105.761719 C 333.867188 96.925781 337.242188 92.613281 341.179688 87.339844 C 346.066406 80.804688 337.921875 75.308594 332.683594 79.34375 Z M 332.683594 79.34375 "/><path style=" stroke:none;fill-rule:nonzero;fill:#1b57b8;fill-opacity:1;" d="M 314.363281 111.558594 C 313.382812 111.558594 312.710938 111.257812 312.269531 110.925781 C 310.554688 109.640625 310.476562 106.582031 312.066406 103.128906 C 315.304688 96.097656 324.957031 84.53125 332.3125 78.863281 C 335.523438 76.386719 339.480469 77.253906 341.578125 79.324219 C 343.34375 81.070312 344.296875 84.1875 341.667969 87.703125 C 337.484375 93.300781 334.007812 97.613281 324.15625 106.21875 C 319.335938 110.425781 316.269531 111.558594 314.363281 111.558594 Z M 333.054688 79.824219 C 325.820312 85.398438 316.34375 96.75 313.167969 103.640625 C 311.847656 106.503906 311.777344 109.039062 312.996094 109.953125 C 313.632812 110.429688 316.257812 111.503906 323.355469 105.300781 C 333.117188 96.777344 336.558594 92.511719 340.695312 86.976562 C 342.53125 84.523438 342.542969 81.984375 340.722656 80.191406 C 338.996094 78.480469 335.71875 77.773438 333.054688 79.824219 Z M 333.054688 79.824219 "/><path style=" stroke:none;fill-rule:nonzero;fill:#1b57b8;fill-opacity:1;" d="M 321.316406 119 C 319.59375 119 318.242188 118.347656 317.441406 117.378906 C 316.214844 115.898438 315.875 113.183594 318.589844 110.015625 C 324.128906 103.5625 328.988281 99.742188 336.011719 94.953125 C 339.183594 92.796875 342.867188 94.101562 344.730469 96.429688 C 346.394531 98.511719 347.136719 102.074219 343.746094 105.257812 C 338.527344 110.15625 331.566406 114.40625 326.085938 117.5625 C 324.320312 118.582031 322.699219 119 321.316406 119 Z M 336.695312 95.960938 C 329.757812 100.6875 324.960938 104.457031 319.511719 110.808594 C 317.652344 112.980469 317.214844 115.199219 318.378906 116.605469 C 319.492188 117.953125 322.121094 118.445312 325.480469 116.511719 C 330.902344 113.386719 337.785156 109.183594 342.914062 104.371094 C 345.699219 101.757812 345.1875 98.949219 343.78125 97.191406 C 342.261719 95.289062 339.261719 94.210938 336.695312 95.960938 Z M 336.695312 95.960938 "/><path style=" stroke:none;fill-rule:nonzero;fill:#ffffff;fill-opacity:1;" d="M 290.5 131.472656 C 286.257812 128.292969 277.882812 118.394531 277.882812 112.839844 C 277.882812 106.425781 294.769531 96.25 302.015625 93.589844 C 307.046875 91.738281 308.394531 99.058594 305.054688 104.015625 C 303.167969 106.824219 296.253906 111.441406 292 112.839844 C 295.675781 115.296875 302.128906 120.324219 301.605469 126.351562 C 301.195312 131.0625 294.320312 134.339844 290.5 131.472656 Z M 290.5 131.472656 "/><path style=" stroke:none;fill-rule:nonzero;fill:#1b57b8;fill-opacity:1;" d="M 293.941406 133.148438 C 292.515625 133.148438 291.1875 132.75 290.132812 131.960938 C 285.71875 128.648438 277.273438 118.625 277.273438 112.839844 C 277.273438 106.117188 294.3125 95.769531 301.804688 93.015625 C 303.652344 92.335938 305.257812 92.710938 306.316406 94.066406 C 308.144531 96.398438 307.804688 101.015625 305.558594 104.355469 C 303.792969 106.980469 297.734375 111.203125 293.308594 113.003906 C 299.519531 117.390625 302.589844 122.007812 302.210938 126.40625 C 301.996094 128.863281 300.171875 131.148438 297.453125 132.367188 C 296.289062 132.890625 295.082031 133.148438 293.941406 133.148438 Z M 290.863281 130.988281 C 292.40625 132.144531 294.742188 132.25 296.957031 131.257812 C 299.277344 130.21875 300.824219 128.320312 301 126.300781 C 301.457031 121.054688 296.175781 116.359375 291.664062 113.347656 C 291.46875 113.21875 291.367188 112.988281 291.398438 112.757812 C 291.429688 112.527344 291.589844 112.335938 291.8125 112.261719 C 295.988281 110.890625 302.777344 106.316406 304.550781 103.675781 C 306.695312 100.492188 306.699219 96.523438 305.363281 94.8125 C 304.632812 93.882812 303.578125 93.664062 302.222656 94.160156 C 298.976562 95.351562 293.011719 98.410156 287.585938 102.300781 C 281.71875 106.507812 278.488281 110.253906 278.488281 112.839844 C 278.488281 118.050781 286.515625 127.726562 290.863281 130.988281 Z M 290.863281 130.988281 "/><path style=" stroke:none;fill-rule:nonzero;fill:#1b57b8;fill-opacity:1;" d="M 307.542969 63.015625 C 307.253906 53.140625 306.339844 44.121094 305.359375 39.421875 C 303.824219 32.074219 293.386719 28.75 294.945312 39.117188 C 296.34375 48.433594 296.859375 56.761719 296.835938 64.101562 C 300.105469 61.183594 304.453125 60.5 307.542969 63.015625 Z M 307.542969 63.015625 "/><path style=" stroke:none;fill-rule:nonzero;fill:#1b57b8;fill-opacity:1;" d="M 296.835938 64.710938 C 296.753906 64.710938 296.667969 64.691406 296.585938 64.65625 C 296.367188 64.558594 296.230469 64.339844 296.230469 64.097656 C 296.253906 56.082031 295.621094 47.707031 294.34375 39.203125 C 293.46875 33.378906 296.234375 32.234375 297.464844 32.015625 C 300.574219 31.457031 304.953125 34.515625 305.953125 39.296875 C 307.015625 44.394531 307.878906 53.695312 308.152344 62.996094 C 308.160156 63.230469 308.027344 63.453125 307.8125 63.558594 C 307.601562 63.660156 307.34375 63.632812 307.160156 63.484375 C 304.429688 61.265625 300.445312 61.695312 297.242188 64.554688 C 297.128906 64.65625 296.984375 64.710938 296.835938 64.710938 Z M 298.246094 33.164062 C 298.050781 33.164062 297.863281 33.179688 297.679688 33.210938 C 295.816406 33.546875 295.039062 35.664062 295.542969 39.023438 C 296.761719 47.140625 297.398438 55.140625 297.441406 62.835938 C 300.527344 60.605469 304.09375 60.230469 306.898438 61.835938 C 306.59375 53.007812 305.769531 44.359375 304.761719 39.546875 C 303.976562 35.78125 300.722656 33.164062 298.246094 33.164062 Z M 298.246094 33.164062 "/><path style=" stroke:none;fill-rule:nonzero;fill:#1b57b8;fill-opacity:1;" d="M 315.140625 85.746094 C 313.023438 84.730469 310.695312 84.6875 308.652344 85.4375 C 306.433594 90.839844 304.75 96.097656 304.265625 99.527344 C 303.226562 106.816406 307.917969 110.824219 315.617188 98.605469 C 317.195312 96.097656 318.542969 93.824219 319.726562 91.71875 C 319.242188 89.203125 317.625 86.9375 315.140625 85.746094 Z M 315.140625 85.746094 "/><path style=" stroke:none;fill-rule:nonzero;fill:#1b57b8;fill-opacity:1;" d="M 307.140625 107.03125 C 306.726562 107.03125 306.375 106.957031 306.089844 106.851562 C 304.082031 106.109375 303.128906 103.203125 303.664062 99.441406 C 304.140625 96.085938 305.753906 90.894531 308.089844 85.203125 C 308.15625 85.046875 308.285156 84.921875 308.445312 84.863281 C 310.734375 84.027344 313.207031 84.144531 315.402344 85.199219 C 317.984375 86.4375 319.777344 88.773438 320.320312 91.601562 C 320.351562 91.742188 320.324219 91.890625 320.253906 92.015625 C 318.980469 94.28125 317.632812 96.542969 316.128906 98.929688 C 311.929688 105.597656 308.933594 107.03125 307.140625 107.03125 Z M 309.109375 85.917969 C 306.867188 91.421875 305.324219 96.402344 304.867188 99.613281 C 304.421875 102.734375 305.082031 105.183594 306.507812 105.710938 C 307.253906 105.984375 310.078125 106.257812 315.101562 98.28125 C 316.550781 95.980469 317.855469 93.796875 319.085938 91.617188 C 318.566406 89.265625 317.042969 87.332031 314.875 86.292969 C 313.058594 85.421875 311.023438 85.289062 309.109375 85.917969 Z M 309.109375 85.917969 "/><path style=" stroke:none;fill-rule:nonzero;fill:#1b57b8;fill-opacity:1;" d="M 319.976562 92.277344 C 316.730469 96.320312 314.011719 100.355469 312.617188 103.382812 C 309.535156 110.070312 312.878906 115.257812 323.753906 105.761719 C 325.769531 104 327.507812 102.425781 329.046875 100.980469 C 329.558594 98.539062 328.839844 95.898438 326.898438 94.0625 C 324.980469 92.25 322.355469 91.667969 319.976562 92.277344 Z M 319.976562 92.277344 "/><path style=" stroke:none;fill-rule:nonzero;fill:#1b57b8;fill-opacity:1;" d="M 314.363281 111.558594 C 313.382812 111.558594 312.710938 111.257812 312.269531 110.925781 C 310.554688 109.640625 310.476562 106.582031 312.066406 103.128906 C 313.4375 100.152344 316.078125 96.160156 319.503906 91.898438 C 319.585938 91.796875 319.699219 91.722656 319.828125 91.6875 C 322.511719 91.003906 325.308594 91.722656 327.3125 93.621094 C 329.351562 95.546875 330.222656 98.34375 329.640625 101.105469 C 329.617188 101.226562 329.554688 101.339844 329.460938 101.421875 C 327.847656 102.941406 326.109375 104.511719 324.152344 106.21875 C 319.335938 110.429688 316.265625 111.558594 314.363281 111.558594 Z M 320.320312 92.820312 C 317.019531 96.949219 314.484375 100.785156 313.167969 103.640625 C 311.847656 106.503906 311.777344 109.039062 312.996094 109.953125 C 313.632812 110.429688 316.257812 111.503906 323.355469 105.300781 C 325.246094 103.652344 326.925781 102.136719 328.488281 100.671875 C 328.90625 98.386719 328.164062 96.09375 326.480469 94.503906 C 324.828125 92.941406 322.539062 92.320312 320.320312 92.820312 Z M 320.320312 92.820312 "/><path style=" stroke:none;fill-rule:nonzero;fill:#1b57b8;fill-opacity:1;" d="M 332.007812 106.695312 C 330.609375 104.523438 328.21875 103.382812 325.816406 103.476562 C 323.488281 105.546875 321.328125 107.761719 319.050781 110.414062 C 314.261719 115.996094 319.175781 120.84375 325.785156 117.035156 C 328.121094 115.691406 330.460938 114.292969 332.726562 112.835938 C 333.414062 110.859375 333.226562 108.59375 332.007812 106.695312 Z M 332.007812 106.695312 "/><path style=" stroke:none;fill-rule:nonzero;fill:#1b57b8;fill-opacity:1;" d="M 321.316406 119 C 319.59375 119 318.242188 118.347656 317.441406 117.378906 C 316.214844 115.898438 315.875 113.183594 318.589844 110.015625 C 320.878906 107.347656 323.046875 105.125 325.410156 103.023438 C 325.515625 102.929688 325.652344 102.875 325.792969 102.867188 C 328.480469 102.765625 331.0625 104.105469 332.519531 106.367188 C 333.796875 108.359375 334.082031 110.789062 333.296875 113.039062 C 333.253906 113.164062 333.167969 113.273438 333.054688 113.347656 C 330.992188 114.675781 328.710938 116.054688 326.085938 117.566406 C 324.320312 118.582031 322.699219 119 321.316406 119 Z M 326.050781 104.078125 C 323.792969 106.101562 321.710938 108.246094 319.511719 110.808594 C 317.652344 112.980469 317.214844 115.199219 318.378906 116.605469 C 319.492188 117.953125 322.121094 118.445312 325.480469 116.511719 C 328.011719 115.050781 330.21875 113.71875 332.21875 112.441406 C 332.792969 110.605469 332.535156 108.640625 331.496094 107.023438 C 330.316406 105.191406 328.261719 104.078125 326.082031 104.078125 C 326.070312 104.078125 326.0625 104.078125 326.050781 104.078125 Z M 332.726562 112.835938 L 332.734375 112.835938 Z M 332.726562 112.835938 "/><path style=" stroke:none;fill-rule:nonzero;fill:#1b57b8;fill-opacity:1;" d="M 302.015625 93.589844 C 298.082031 95.03125 291.316406 98.691406 285.941406 102.761719 C 285.714844 106.550781 286.980469 110.726562 292 112.839844 C 296.253906 111.441406 303.167969 106.824219 305.054688 104.015625 C 308.394531 99.058594 307.046875 91.738281 302.015625 93.589844 Z M 302.015625 93.589844 "/><path style=" stroke:none;fill-rule:nonzero;fill:#1b57b8;fill-opacity:1;" d="M 292 113.449219 C 291.921875 113.449219 291.839844 113.433594 291.765625 113.402344 C 287.320312 111.527344 285.039062 107.734375 285.339844 102.722656 C 285.347656 102.546875 285.4375 102.382812 285.578125 102.273438 C 291.125 98.074219 297.9375 94.4375 301.804688 93.015625 L 302.015625 93.589844 L 301.804688 93.015625 C 303.652344 92.339844 305.257812 92.710938 306.316406 94.066406 C 308.148438 96.398438 307.808594 101.019531 305.558594 104.359375 C 303.636719 107.214844 296.640625 111.957031 292.191406 113.417969 C 292.128906 113.441406 292.066406 113.449219 292 113.449219 Z M 286.535156 103.074219 C 286.414062 106.148438 287.3125 110.101562 292.027344 112.191406 C 296.21875 110.734375 302.808594 106.269531 304.550781 103.679688 C 306.695312 100.496094 306.699219 96.523438 305.359375 94.816406 C 304.632812 93.882812 303.574219 93.664062 302.222656 94.160156 C 298.492188 95.53125 291.945312 99.019531 286.535156 103.074219 Z M 286.535156 103.074219 "/><g style="fill:#ffffff;fill-opacity:1;"><g transform="translate(14.106449, 25.137942)"><path style="stroke:none" d="M 5.8125 -11.421875 C 6.601562 -11.421875 7.28125 -11.28125 7.84375 -11 C 8.40625 -10.71875 8.832031 -10.316406 9.125 -9.796875 C 9.414062 -9.273438 9.5625 -8.660156 9.5625 -7.953125 C 9.5625 -7.242188 9.414062 -6.628906 9.125 -6.109375 C 8.832031 -5.585938 8.40625 -5.179688 7.84375 -4.890625 C 7.28125 -4.609375 6.601562 -4.46875 5.8125 -4.46875 L 3.078125 -4.46875 L 3.078125 0 L 1.734375 0 L 1.734375 -11.421875 Z M 5.78125 -5.625 C 7.363281 -5.625 8.15625 -6.398438 8.15625 -7.953125 C 8.15625 -9.503906 7.363281 -10.28125 5.78125 -10.28125 L 3.078125 -10.28125 L 3.078125 -5.625 Z M 5.78125 -5.625 "/></g></g><g style="fill:#ffffff;fill-opacity:1;"><g transform="translate(24.517974, 25.137942)"><path style="stroke:none" d="M 2.140625 -10.28125 C 1.867188 -10.28125 1.648438 -10.363281 1.484375 -10.53125 C 1.316406 -10.707031 1.234375 -10.925781 1.234375 -11.1875 C 1.234375 -11.445312 1.316406 -11.660156 1.484375 -11.828125 C 1.648438 -11.992188 1.867188 -12.078125 2.140625 -12.078125 C 2.410156 -12.078125 2.628906 -11.992188 2.796875 -11.828125 C 2.972656 -11.660156 3.0625 -11.445312 3.0625 -11.1875 C 3.0625 -10.925781 2.972656 -10.707031 2.796875 -10.53125 C 2.628906 -10.363281 2.410156 -10.28125 2.140625 -10.28125 Z M 1.5 0 L 1.5 -8.625 L 2.78125 -8.625 L 2.78125 0 Z M 1.5 0 "/></g></g><g style="fill:#ffffff;fill-opacity:1;"><g transform="translate(28.790373, 25.137942)"><path style="stroke:none" d="M 1.5 0 L 1.5 -8.625 L 2.71875 -8.625 L 2.71875 -7.265625 L 2.875 -7.234375 C 3.164062 -7.734375 3.53125 -8.113281 3.96875 -8.375 C 4.414062 -8.644531 4.960938 -8.78125 5.609375 -8.78125 C 6.640625 -8.78125 7.390625 -8.515625 7.859375 -7.984375 C 8.328125 -7.460938 8.5625 -6.648438 8.5625 -5.546875 L 8.5625 0 L 7.28125 0 L 7.28125 -5.515625 C 7.28125 -6.035156 7.210938 -6.453125 7.078125 -6.765625 C 6.953125 -7.085938 6.75 -7.316406 6.46875 -7.453125 C 6.1875 -7.597656 5.820312 -7.671875 5.375 -7.671875 C 4.59375 -7.671875 3.960938 -7.414062 3.484375 -6.90625 C 3.015625 -6.394531 2.78125 -5.566406 2.78125 -4.421875 L 2.78125 0 Z M 1.5 0 "/></g></g><g style="fill:#ffffff;fill-opacity:1;"><g transform="translate(38.709825, 25.137942)"><path style="stroke:none" d="M 4.953125 0.171875 C 4.140625 0.171875 3.429688 0 2.828125 -0.34375 C 2.222656 -0.695312 1.757812 -1.207031 1.4375 -1.875 C 1.113281 -2.539062 0.953125 -3.351562 0.953125 -4.3125 C 0.953125 -5.257812 1.113281 -6.066406 1.4375 -6.734375 C 1.757812 -7.410156 2.222656 -7.921875 2.828125 -8.265625 C 3.429688 -8.609375 4.140625 -8.78125 4.953125 -8.78125 C 5.765625 -8.78125 6.46875 -8.609375 7.0625 -8.265625 C 7.664062 -7.921875 8.128906 -7.410156 8.453125 -6.734375 C 8.785156 -6.066406 8.953125 -5.257812 8.953125 -4.3125 C 8.953125 -3.351562 8.785156 -2.539062 8.453125 -1.875 C 8.128906 -1.207031 7.664062 -0.695312 7.0625 -0.34375 C 6.46875 0 5.765625 0.171875 4.953125 0.171875 Z M 4.953125 -0.984375 C 5.804688 -0.984375 6.460938 -1.253906 6.921875 -1.796875 C 7.378906 -2.335938 7.609375 -3.175781 7.609375 -4.3125 C 7.609375 -5.445312 7.378906 -6.285156 6.921875 -6.828125 C 6.460938 -7.367188 5.804688 -7.640625 4.953125 -7.640625 C 4.085938 -7.640625 3.425781 -7.367188 2.96875 -6.828125 C 2.507812 -6.285156 2.28125 -5.445312 2.28125 -4.3125 C 2.28125 -3.175781 2.507812 -2.335938 2.96875 -1.796875 C 3.425781 -1.253906 4.085938 -0.984375 4.953125 -0.984375 Z M 4.953125 -0.984375 "/></g></g><g style="fill:#ffffff;fill-opacity:1;"><g transform="translate(48.598035, 25.137942)"><path style="stroke:none" d="M 1.5 0 L 1.5 -12.078125 L 2.78125 -12.078125 L 2.78125 -5.03125 L 2.984375 -5.03125 L 6.1875 -8.625 L 7.53125 -8.625 L 7.53125 -8.4375 L 4.109375 -4.578125 L 7.859375 -0.203125 L 7.859375 0 L 6.4375 0 L 2.984375 -3.984375 L 2.78125 -3.984375 L 2.78125 0 Z M 1.5 0 "/></g></g><g style="fill:#ffffff;fill-opacity:1;"><g transform="translate(56.611703, 25.137942)"><path style="stroke:none" d="M 2.140625 -10.28125 C 1.867188 -10.28125 1.648438 -10.363281 1.484375 -10.53125 C 1.316406 -10.707031 1.234375 -10.925781 1.234375 -11.1875 C 1.234375 -11.445312 1.316406 -11.660156 1.484375 -11.828125 C 1.648438 -11.992188 1.867188 -12.078125 2.140625 -12.078125 C 2.410156 -12.078125 2.628906 -11.992188 2.796875 -11.828125 C 2.972656 -11.660156 3.0625 -11.445312 3.0625 -11.1875 C 3.0625 -10.925781 2.972656 -10.707031 2.796875 -10.53125 C 2.628906 -10.363281 2.410156 -10.28125 2.140625 -10.28125 Z M 1.5 0 L 1.5 -8.625 L 2.78125 -8.625 L 2.78125 0 Z M 1.5 0 "/></g></g></g></svg>